<svg width="11" height="9" viewBox="0 0 11 9" fill="none" xmlns="http://www.w3.org/2000/svg">
<path d="M4.60462 8.166C4.55871 8.12126 4.36238 7.95237 4.20088 7.79504C3.18517 6.87265 1.52267 4.46641 1.01521 3.20699C0.933667 3.01573 0.761083 2.53217 0.75 2.27381C0.75 2.02624 0.807 1.79025 0.922583 1.56505C1.08408 1.28432 1.33821 1.05912 1.63825 0.935724C1.84646 0.856287 2.4695 0.732891 2.48058 0.732891C3.16221 0.609494 4.26975 0.541626 5.49367 0.541626C6.65979 0.541626 7.72221 0.609494 8.41412 0.710525C8.42521 0.722094 9.19946 0.84549 9.46467 0.980455C9.94917 1.22802 10.25 1.71158 10.25 2.22908V2.27381C10.2381 2.61083 9.93729 3.31959 9.92621 3.31959C9.41796 4.51114 7.837 6.86185 6.78646 7.8066C6.78646 7.8066 6.5165 8.07268 6.34788 8.18836C6.10563 8.36883 5.80558 8.45829 5.50554 8.45829C5.17067 8.45829 4.85875 8.35726 4.60462 8.166Z" fill="white"/>
</svg>
