<svg width="8" height="11" viewBox="0 0 8 11" fill="none" xmlns="http://www.w3.org/2000/svg">
<path d="M6.96985 5.87704C7.03092 5.83499 7.08085 5.77873 7.11535 5.7131C7.14984 5.64746 7.16786 5.57443 7.16786 5.50029C7.16786 5.42614 7.14984 5.35311 7.11535 5.28748C7.08085 5.22185 7.03092 5.16559 6.96985 5.12354L1.01151 0.998538C0.94279 0.95079 0.862295 0.922791 0.778775 0.917581C0.695255 0.91237 0.611903 0.930147 0.537777 0.968982C0.463652 1.00782 0.401586 1.06622 0.358324 1.13785C0.315061 1.20949 0.292257 1.29161 0.292389 1.37529L0.292389 9.62529C0.292734 9.70878 0.315832 9.79059 0.359197 9.86193C0.402563 9.93328 0.464557 9.99145 0.538511 10.0302C0.612466 10.0689 0.695583 10.0868 0.778925 10.0818C0.862266 10.0769 0.942679 10.0493 1.01151 10.002L6.96985 5.87704Z" fill="black"/>
</svg>
