<svg width="20" height="20" viewBox="0 0 20 20" fill="none" xmlns="http://www.w3.org/2000/svg">
<path d="M9.31452 16.3088C9.39097 16.4198 9.49327 16.5106 9.6126 16.5733C9.73193 16.6361 9.86471 16.6688 9.99952 16.6688C10.1343 16.6688 10.2671 16.6361 10.3864 16.5733C10.5058 16.5106 10.6081 16.4198 10.6845 16.3088L18.1845 5.47547C18.2713 5.35052 18.3222 5.20416 18.3317 5.05231C18.3412 4.90045 18.3089 4.7489 18.2383 4.61413C18.1677 4.47936 18.0615 4.36651 17.9312 4.28785C17.801 4.20919 17.6517 4.16773 17.4995 4.16797H2.49952C2.34772 4.1686 2.19897 4.21059 2.06925 4.28944C1.93954 4.36829 1.83377 4.481 1.76333 4.61546C1.69288 4.74993 1.66042 4.90105 1.66944 5.05258C1.67846 5.20411 1.72862 5.35031 1.81452 5.47547L9.31452 16.3088Z" fill="#106A64"/>
</svg>
