<svg width="20" height="20" viewBox="0 0 20 20" fill="none" xmlns="http://www.w3.org/2000/svg">
<path fill-rule="evenodd" clip-rule="evenodd" d="M2.91669 8.59797C2.91669 4.76475 6.11992 1.6665 9.99456 1.6665C13.8801 1.6665 17.0834 4.76475 17.0834 8.59797C17.0834 10.5296 16.3809 12.3229 15.2246 13.8428C13.949 15.5194 12.3768 16.9802 10.6071 18.1269C10.2021 18.3919 9.83658 18.4119 9.39206 18.1269C7.6123 16.9802 6.04009 15.5194 4.77544 13.8428C3.61834 12.3229 2.91669 10.5296 2.91669 8.59797ZM7.66188 8.8138C7.66188 10.0979 8.70974 11.1079 9.99456 11.1079C11.2802 11.1079 12.3382 10.0979 12.3382 8.8138C12.3382 7.53967 11.2802 6.48053 9.99456 6.48053C8.70974 6.48053 7.66188 7.53967 7.66188 8.8138Z" fill="#130F26"/>
</svg>
